Verenigde Staten
Avontuur / Romantiek
106 minuten

geregisseerd door John McTiernan
met Sean Connery, Lorraine Bracco en José Wilker

Een blanke dokter - wonende in een Indianen gemeenschap als medicijnman in het regenwoud - 
slaagt er in een medicijn te maken tegen kanker. Hij vraagt dan ook dringend versterking aan zijn opdrachtgevers en
krijgt die ook in de vorm van een vrouwelijke botanica om een onbekend element in zijn medicijn tegen kanker te analyseren. 
De tijd dringt want het regenwoud wordt met de minuut uitgedund en verwoest daarbij belangrijk materiaal om het serum tegen kanker te maken.



General
Complete name                            : C:\Users\Jeroen\Desktop\Medicine Man.avi
Format                                   : AVI
Format/Info                              : Audio Video Interleave
Format profile                           : OpenDML
File size                                : 2.52 GiB
Duration                                 : 1h 41mn
Overall bit rate                         : 3 566 Kbps
Writing application                      : MEncoder Sherpya-SVN-r27743-4.2.5
Writing library                          : MPlayer

Video
ID                                       : 0
Format                                   : MPEG-4 Visual
Format profile                           : Advanced Simple@L5
Format settings, BVOP                    : 2
Format settings, QPel                    : No
Format settings, GMC                     : No warppoints
Format settings, Matrix                  : Default (H.263)
Codec ID                                 : XVID
Codec ID/Hint                            : XviD
Duration                                 : 1h 41mn
Bit rate                                 : 3 426 Kbps
Width                                    : 720 pixels
Height                                   : 576 pixels
Display aspect ratio                     : 5:4
Frame rate                               : 25.000 fps
Standard                                 : PAL
Color space                              : YUV
Chroma subsampling                       : 4:2:0
Bit depth                                : 8 bits
Scan type                                : Progressive
Compression mode                         : Lossy
Bits/(Pixel*Frame)                       : 0.330
Stream size                              : 2.42 GiB (96%)
Writing library                          : XviD 1.1.2 (UTC 2006-11-01)

Audio
ID                                       : 1
Format                                   : MPEG Audio
Format version                           : Version 1
Format profile                           : Layer 3
Codec ID                                 : 55
Codec ID/Hint                            : MP3
Duration                                 : 1h 41mn
Bit rate mode                            : Constant
Bit rate                                 : 128 Kbps
Channel(s)                               : 2 channels
Sampling rate                            : 48.0 KHz
Compression mode                         : Lossy
Delay relative to video                  : 40ms
Stream size                              : 92.5 MiB (4%)
Alignment                                : Aligned on interleaves
Interleave, duration                     : 24 ms (0.60 video frame)
Interleave, preload duration             : 504 ms
